<?xml version="1.0" encoding="utf-8"?>
<!DOCTYPE svg PUBLIC "-//W3C//DTD SVG 1.1//EN" "http://www.w3.org/Graphics/SVG/1.1/DTD/svg11.dtd">
<svg xmlns="http://www.w3.org/2000/svg" xmlns:xlink="http://www.w3.org/1999/xlink" version="1.1" baseProfile="full" width="216.333" height="83.8333" viewBox="0 0 216.33 83.83" enable-background="new 0 0 216.33 83.83" xml:space="preserve">
	<g>
		<rect x="0" y="7.62939e-006" fill="#000000" fill-opacity="1" stroke-width="0.2" stroke-linejoin="round" width="216.333" height="83.8333"/>
		<g>
			<path fill="#FFFFFF" fill-opacity="1" stroke-width="0.2" stroke-linejoin="round" d="M 34.6666,47.25L 26.0729,70.5833L 23.0833,70.5833L 14.6666,47.25L 17.7135,47.25L 24.1198,65.75C 24.3246,66.3472 24.4809,67.0365 24.5885,67.8177L 24.651,67.8177C 24.7378,67.1684 24.9149,66.4688 25.1823,65.7188L 31.7187,47.25L 34.6666,47.25 Z "/>
			<path fill="#FFFFFF" fill-opacity="1" stroke-width="0.2" stroke-linejoin="round" d="M 48.5,62.9167L 36.8333,62.9167C 36.8785,64.7257 37.3802,66.1224 38.3385,67.1068C 39.2969,68.0912 40.6163,68.5833 42.2969,68.5833C 44.1857,68.5833 45.9201,68.0278 47.5,66.9167L 47.5,69.3594C 46.0416,70.3976 44.1111,70.9167 41.7083,70.9167C 39.3611,70.9167 37.5173,70.1649 36.1771,68.6615C 34.8368,67.158 34.1666,65.0417 34.1666,62.3125C 34.1666,59.7361 34.8915,57.6372 36.3411,56.0156C 37.7908,54.3941 39.592,53.5833 41.7448,53.5833C 43.8941,53.5833 45.5573,54.2839 46.7344,55.6849C 47.9114,57.0859 48.5,59.033 48.5,61.526L 48.5,62.9167 Z M 45.8333,60.5833C 45.8229,59.1111 45.4531,57.9653 44.7239,57.1458C 43.9948,56.3264 42.9809,55.9167 41.6823,55.9167C 40.4288,55.9167 39.3646,56.3472 38.4896,57.2083C 37.6146,58.0695 37.0746,59.1945 36.8698,60.5833L 45.8333,60.5833 Z "/>
			<path fill="#FFFFFF" fill-opacity="1" stroke-width="0.2" stroke-linejoin="round" d="M 66.5,70.5833L 63.8333,70.5833L 63.8333,61.1719C 63.8333,57.6684 62.5156,55.9167 59.8802,55.9167C 58.5191,55.9167 57.3932,56.4132 56.5026,57.4063C 55.612,58.3993 55.1666,59.6545 55.1666,61.1719L 55.1666,70.5833L 52.5,70.5833L 52.5,53.9167L 55.1666,53.9167L 55.1666,56.8281L 55.2344,56.8281C 56.5121,54.6649 58.3611,53.5833 60.7812,53.5833C 62.6319,53.5833 64.0477,54.1701 65.0286,55.3438C 66.0095,56.5174 66.5,58.2118 66.5,60.4271L 66.5,70.5833 Z "/>
			<path fill="#FFFFFF" fill-opacity="1" stroke-width="0.2" stroke-linejoin="round" d="M 79.5,70.3594C 78.8576,70.7309 78.0121,70.9167 76.9635,70.9167C 73.9878,70.9167 72.5,69.2986 72.5,66.0625L 72.5,56.25L 69.5,56.25L 69.5,53.9167L 72.5,53.9167L 72.5,49.7917L 75.1667,48.9167L 75.1667,53.9167L 79.5,53.9167L 79.5,56.25L 75.1667,56.25L 75.1667,65.5156C 75.1667,66.6198 75.3628,67.4071 75.7552,67.8776C 76.1476,68.3481 76.7969,68.5833 77.7031,68.5833C 78.3976,68.5833 78.9965,68.3611 79.5,67.9167L 79.5,70.3594 Z "/>
			<path fill="#FFFFFF" fill-opacity="1" stroke-width="0.2" stroke-linejoin="round" d="M 96.5,70.5833L 93.8333,70.5833L 93.8333,67.8021L 93.7656,67.8021C 92.6441,69.8785 90.9045,70.9167 88.5469,70.9167C 84.5156,70.9167 82.5,68.559 82.5,63.8438L 82.5,53.9167L 85.1667,53.9167L 85.1667,63.3594C 85.1667,66.842 86.5364,68.5833 89.276,68.5833C 90.6024,68.5833 91.6936,68.1077 92.5495,67.1563C 93.4054,66.2049 93.8333,64.9618 93.8333,63.4271L 93.8333,53.9167L 96.5,53.9167L 96.5,70.5833 Z "/>
			<path fill="#FFFFFF" fill-opacity="1" stroke-width="0.2" stroke-linejoin="round" d="M 110.5,56.5833C 110.035,56.1389 109.365,55.9167 108.49,55.9167C 107.354,55.9167 106.405,56.4601 105.643,57.5469C 104.881,58.6337 104.5,60.1146 104.5,61.9896L 104.5,70.5833L 101.833,70.5833L 101.833,53.9167L 104.5,53.9167L 104.5,57.1823L 104.562,57.1823C 104.941,56.0504 105.52,55.1675 106.299,54.5339C 107.079,53.9002 107.95,53.5833 108.911,53.5833C 109.602,53.5833 110.132,53.6597 110.5,53.8125L 110.5,56.5833 Z "/>
			<path fill="#FFFFFF" fill-opacity="1" stroke-width="0.2" stroke-linejoin="round" d="M 126,62.9167L 114.333,62.9167C 114.378,64.7257 114.88,66.1224 115.839,67.1068C 116.797,68.0912 118.116,68.5833 119.797,68.5833C 121.686,68.5833 123.42,68.0278 125,66.9167L 125,69.3594C 123.542,70.3976 121.611,70.9167 119.208,70.9167C 116.861,70.9167 115.017,70.1649 113.677,68.6615C 112.337,67.158 111.667,65.0417 111.667,62.3125C 111.667,59.7361 112.391,57.6372 113.841,56.0156C 115.291,54.3941 117.092,53.5833 119.245,53.5833C 121.394,53.5833 123.057,54.2839 124.234,55.6849C 125.411,57.0859 126,59.033 126,61.526L 126,62.9167 Z M 123.333,60.5833C 123.323,59.1111 122.953,57.9653 122.224,57.1458C 121.495,56.3264 120.481,55.9167 119.182,55.9167C 117.929,55.9167 116.865,56.3472 115.99,57.2083C 115.115,58.0695 114.575,59.1945 114.37,60.5833L 123.333,60.5833 Z "/>
			<path fill="#FFFFFF" fill-opacity="1" stroke-width="0.2" stroke-linejoin="round" d="M 129,69.8854L 129,66.9167C 130.458,68.0278 132.062,68.5833 133.812,68.5833C 136.16,68.5833 137.333,67.842 137.333,66.3594C 137.333,65.9184 137.233,65.5443 137.031,65.237C 136.83,64.9297 136.557,64.6571 136.214,64.4193C 135.87,64.1814 135.465,63.9679 135,63.7786C 134.535,63.5894 134.035,63.3924 133.5,63.1875C 132.76,62.8993 132.109,62.6068 131.547,62.3099C 130.984,62.013 130.515,61.678 130.138,61.3047C 129.761,60.9314 129.477,60.5078 129.286,60.0339C 129.095,59.5599 129,59.0052 129,58.3698C 129,57.592 129.181,56.9045 129.542,56.3073C 129.903,55.7101 130.384,55.2092 130.984,54.8047C 131.585,54.4002 132.271,54.0955 133.042,53.8906C 133.812,53.6858 134.608,53.5833 135.427,53.5833C 136.882,53.5833 138.184,53.849 139.333,54.3802L 139.333,57.25C 138.083,56.3611 136.646,55.9167 135.021,55.9167C 134.51,55.9167 134.05,55.9705 133.641,56.0781C 133.231,56.1858 132.879,56.3377 132.586,56.5339C 132.293,56.73 132.066,56.9644 131.906,57.237C 131.747,57.5096 131.667,57.8108 131.667,58.1406C 131.667,58.5712 131.746,58.9323 131.904,59.224C 132.062,59.5156 132.293,59.7743 132.599,60C 132.905,60.2257 133.276,60.4306 133.714,60.6146C 134.151,60.7986 134.648,60.9983 135.203,61.2135C 135.946,61.4948 136.612,61.7839 137.201,62.0807C 137.789,62.3776 138.291,62.7118 138.706,63.0833C 139.121,63.4549 139.44,63.8828 139.664,64.3672C 139.888,64.8516 140,65.4288 140,66.099C 140,66.9184 139.819,67.6302 139.458,68.2344C 139.097,68.8385 138.614,69.3394 138.008,69.737C 137.402,70.1346 136.705,70.4306 135.917,70.625C 135.128,70.8194 134.302,70.9167 133.437,70.9167C 131.733,70.9167 130.253,70.5729 129,69.8854 Z "/>
		</g>
		<g>
			<path fill="#FFFFFF" fill-opacity="1" stroke-width="0.2" stroke-linejoin="round" d="M 35,40.4167L 29.6667,40.4167L 29.6667,31.0834L 20,31.0834L 20,40.4167L 14.6667,40.4167L 14.6667,17.0834L 20,17.0834L 20,26.4167L 29.6667,26.4167L 29.6667,17.0834L 35,17.0834L 35,40.4167 Z "/>
			<path fill="#FFFFFF" fill-opacity="1" stroke-width="0.2" stroke-linejoin="round" d="M 60.6667,40.4167L 54.9375,40.4167L 53.4375,35.75L 44.849,35.75L 43.3646,40.4167L 37.6667,40.4167L 46.151,17.0834L 52.375,17.0834L 60.6667,40.4167 Z M 52.0365,31.0834L 49.5885,23.349C 49.3976,22.7622 49.2656,22.0625 49.1927,21.25L 49.0625,21.25C 49.0208,21.9341 48.8837,22.6111 48.651,23.2813L 46.1562,31.0834L 52.0365,31.0834 Z "/>
			<path fill="#FFFFFF" fill-opacity="1" stroke-width="0.2" stroke-linejoin="round" d="M 79.5,39.5209C 77.816,40.3403 75.6163,40.75 72.901,40.75C 69.3559,40.75 66.5694,39.7031 64.5417,37.6094C 62.5139,35.5156 61.5,32.7275 61.5,29.2448C 61.5,25.533 62.6406,22.5226 64.9219,20.2136C 67.2031,17.9045 70.1632,16.75 73.8021,16.75C 76.0555,16.75 77.9549,17.0417 79.5,17.625L 79.5,22.75C 77.9792,21.8611 76.2465,21.4167 74.3021,21.4167C 72.1667,21.4167 70.4436,22.0868 69.1328,23.4271C 67.822,24.7674 67.1667,26.5834 67.1667,28.875C 67.1667,31.0729 67.7847,32.8238 69.0208,34.1276C 70.2569,35.4314 71.9219,36.0834 74.0156,36.0834C 76.0121,36.0834 77.8403,35.6389 79.5,34.75L 79.5,39.5209 Z "/>
			<path fill="#FFFFFF" fill-opacity="1" stroke-width="0.2" stroke-linejoin="round" d="M 102.833,40.4167L 96.2604,40.4167L 89.526,30.2813C 89.3976,30.0868 89.1927,29.658 88.9115,28.9948L 88.8333,28.9948L 88.8333,40.4167L 83.5,40.4167L 83.5,17.0834L 88.8333,17.0834L 88.8333,28.1146L 88.9115,28.1146C 89.0434,27.8125 89.2587,27.3785 89.5573,26.8125L 95.9531,17.0834L 102.167,17.0834L 94.0833,28.2136L 102.833,40.4167 Z "/>
			<path fill="#FFFFFF" fill-opacity="1" stroke-width="0.2" stroke-linejoin="round" d="M 119.167,40.4167L 105.167,40.4167L 105.167,17.0834L 118.5,17.0834L 118.5,21.4167L 110.5,21.4167L 110.5,26.4167L 118.167,26.4167L 118.167,30.75L 110.5,30.75L 110.5,36.0834L 119.167,36.0834L 119.167,40.4167 Z "/>
			<path fill="#FFFFFF" fill-opacity="1" stroke-width="0.2" stroke-linejoin="round" d="M 142.203,40.4167L 136.167,40.4167L 132.661,34.3698C 132.401,33.908 132.15,33.4974 131.909,33.138C 131.668,32.7787 131.424,32.4705 131.177,32.2136C 130.931,31.9566 130.674,31.7596 130.406,31.6224C 130.139,31.4853 129.849,31.4167 129.536,31.4167L 128.167,31.4167L 128.167,40.4167L 122.833,40.4167L 122.833,17.0834L 131.089,17.0834C 136.696,17.0834 139.5,19.1893 139.5,23.4011C 139.5,24.2101 139.378,24.9575 139.133,25.6433C 138.888,26.329 138.543,26.9471 138.096,27.4974C 137.65,28.0478 137.111,28.5226 136.479,28.9219C 135.847,29.3212 135.144,29.6337 134.37,29.8594L 134.37,29.9271C 134.71,30.0347 135.04,30.211 135.359,30.4558C 135.679,30.7005 135.987,30.987 136.284,31.3151C 136.581,31.6433 136.865,31.9957 137.138,32.3724C 137.411,32.7492 137.658,33.1181 137.88,33.4792L 142.203,40.4167 Z M 128.167,21.0834L 128.167,27.4167L 130.307,27.4167C 131.366,27.4167 132.215,27.099 132.854,26.4636C 133.507,25.8177 133.833,25.0191 133.833,24.0677C 133.833,22.0781 132.688,21.0834 130.396,21.0834L 128.167,21.0834 Z "/>
			<path fill="#FFFFFF" fill-opacity="1" stroke-width="0.2" stroke-linejoin="round" d="M 144.5,40.4167L 144.5,17.0834L 153.031,17.0834C 155.646,17.0834 157.655,17.5591 159.06,18.5104C 160.464,19.4618 161.167,20.8021 161.167,22.5313C 161.167,23.7847 160.74,24.8811 159.885,25.8203C 159.031,26.7596 157.939,27.4132 156.609,27.7813L 156.609,27.849C 158.297,28.0538 159.645,28.6676 160.654,29.6901C 161.662,30.7127 162.167,31.9584 162.167,33.4271C 162.167,35.5729 161.396,37.2743 159.854,38.5313C 158.313,39.7882 156.207,40.4167 153.536,40.4167L 144.5,40.4167 Z M 149.833,21.0834L 149.833,26.4167L 152.089,26.4167C 153.148,26.4167 153.981,26.1632 154.589,25.6563C 155.196,25.1493 155.5,24.4514 155.5,23.5625C 155.5,21.9097 154.252,21.0834 151.755,21.0834L 149.833,21.0834 Z M 149.833,30.4167L 149.833,36.4167L 152.651,36.4167C 153.852,36.4167 154.794,36.1415 155.477,35.5912C 156.159,35.0408 156.5,34.29 156.5,33.3386C 156.5,32.4288 156.165,31.7144 155.495,31.1953C 154.825,30.6762 153.887,30.4167 152.682,30.4167L 149.833,30.4167 Z "/>
			<path fill="#FFFFFF" fill-opacity="1" stroke-width="0.2" stroke-linejoin="round" d="M 186.167,40.4167L 180.438,40.4167L 178.938,35.75L 170.349,35.75L 168.865,40.4167L 163.167,40.4167L 171.651,17.0834L 177.875,17.0834L 186.167,40.4167 Z M 177.536,31.0834L 175.089,23.349C 174.898,22.7622 174.766,22.0625 174.693,21.25L 174.563,21.25C 174.521,21.9341 174.384,22.6111 174.151,23.2813L 171.656,31.0834L 177.536,31.0834 Z "/>
			<path fill="#FFFFFF" fill-opacity="1" stroke-width="0.2" stroke-linejoin="round" d="M 204.333,17.0834L 196.667,32.1198L 196.667,40.4167L 191.333,40.4167L 191.333,32.2136L 184,17.0834L 190.005,17.0834L 193.74,25.7865C 193.802,25.9497 193.979,26.5851 194.271,27.6927L 194.339,27.6927C 194.481,26.9115 194.653,26.2986 194.854,25.8542L 198.766,17.0834L 204.333,17.0834 Z "/>
		</g>
	</g>
</svg>
