<?xml version="1.0" encoding="utf-8"?>
<!DOCTYPE svg PUBLIC "-//W3C//DTD SVG 1.1//EN" "http://www.w3.org/Graphics/SVG/1.1/DTD/svg11.dtd">
<svg xmlns="http://www.w3.org/2000/svg" xmlns:xlink="http://www.w3.org/1999/xlink" version="1.1" baseProfile="full" width="100" height="100" viewBox="0 0 100.00 100.00" enable-background="new 0 0 100.00 100.00" xml:space="preserve">
	<g>
		<path fill="#000000" fill-opacity="1" stroke-width="0.2" stroke-linejoin="round" d="M 14,0L 86,0C 93.732,0 100,6.26802 100,14L 100,86C 100,93.732 93.732,100 86,100L 14,100C 6.26802,100 0,93.732 0,86L 0,14C 0,6.26802 6.26802,0 14,0 Z "/>
		<g>
			<path fill="#FFFFFF" fill-opacity="1" stroke-width="0.2" stroke-linejoin="round" d="M 50.8667,45.3334L 36.1385,87.3334L 25.2167,87.3334L 10.6667,45.3334L 21.0448,45.3334L 29.9604,74.5646C 30.4354,76.1459 30.7229,77.5427 30.8229,78.7552L 31.001,78.7552C 31.1448,77.449 31.4542,76.0146 31.9292,74.4521L 40.7885,45.3334L 50.8667,45.3334 Z "/>
			<path fill="#FFFFFF" fill-opacity="1" stroke-width="0.2" stroke-linejoin="round" d="M 76.9667,74.7334L 57.7667,74.7334C 58.0792,79.1333 60.801,81.3334 65.9323,81.3334C 69.2073,81.3334 72.0854,80.5333 74.5667,78.9333L 74.5667,85.6833C 71.8229,87.1833 68.2604,87.9333 63.8792,87.9333C 59.0917,87.9333 55.376,86.6021 52.7323,83.9396C 50.0885,81.2771 48.7667,77.5646 48.7667,72.8021C 48.7667,67.8584 50.1854,63.9443 53.0229,61.0599C 55.8604,58.1755 59.3479,56.7334 63.4854,56.7334C 67.7792,56.7334 71.0995,58.0068 73.4464,60.5537C 75.7932,63.1005 76.9667,66.5552 76.9667,70.9177L 76.9667,74.7334 Z M 68.5667,69.3334C 68.5667,65.3334 66.8573,63.3334 63.4385,63.3334C 61.9823,63.3334 60.7214,63.9068 59.6557,65.0536C 58.5901,66.2005 57.9417,67.6271 57.7104,69.3334L 68.5667,69.3334 Z "/>
		</g>
	</g>
</svg>
