<?xml version="1.0" encoding="utf-8"?>
<!DOCTYPE svg PUBLIC "-//W3C//DTD SVG 1.1//EN" "http://www.w3.org/Graphics/SVG/1.1/DTD/svg11.dtd">
<svg xmlns="http://www.w3.org/2000/svg" xmlns:xlink="http://www.w3.org/1999/xlink" version="1.1" baseProfile="full" width="442.5" height="181.5" viewBox="0 0 442.50 181.50" enable-background="new 0 0 442.50 181.50" xml:space="preserve">
	<rect x="0" y="0" fill="#000000" fill-opacity="1" stroke-width="0.2" stroke-linejoin="round" width="442.5" height="181.5"/>
	<g>
		<path fill="#FFFFFF" fill-opacity="1" stroke-linejoin="round" d="M 179.44,55L 177.877,55L 176.002,51.8375C 175.822,51.5425 175.648,51.2917 175.479,51.085C 175.309,50.8783 175.136,50.7092 174.957,50.5775C 174.779,50.4458 174.588,50.35 174.384,50.29C 174.179,50.23 173.948,50.2 173.69,50.2L 172.56,50.2L 172.56,55L 171.28,55L 171.28,43.8L 174.687,43.8C 175.187,43.8 175.648,43.8612 176.07,43.9837C 176.492,44.1062 176.858,44.2921 177.169,44.5413C 177.479,44.7904 177.722,45.1008 177.897,45.4725C 178.072,45.8441 178.16,46.2792 178.16,46.7775C 178.16,47.1675 178.099,47.525 177.979,47.85C 177.858,48.175 177.686,48.4646 177.464,48.7188C 177.241,48.9729 176.973,49.1896 176.66,49.3687C 176.346,49.5479 175.994,49.6875 175.602,49.7875L 175.602,49.8175C 175.797,49.9008 175.967,49.9958 176.111,50.1025C 176.255,50.2092 176.392,50.3358 176.522,50.4825C 176.652,50.6292 176.781,50.795 176.91,50.98C 177.038,51.165 177.181,51.38 177.337,51.625L 179.44,55 Z M 172.56,44.92L 172.56,49.08L 174.385,49.08C 174.72,49.08 175.03,49.0292 175.316,48.9275C 175.602,48.8258 175.849,48.6804 176.056,48.4912C 176.264,48.3021 176.426,48.0704 176.544,47.7962C 176.661,47.5221 176.72,47.2142 176.72,46.8725C 176.72,46.2592 176.521,45.7804 176.124,45.4362C 175.726,45.0921 175.151,44.92 174.4,44.92L 172.56,44.92 Z "/>
		<path fill="#FFFFFF" fill-opacity="1" stroke-linejoin="round" d="M 186.72,51.32L 181.12,51.32C 181.141,52.1883 181.382,52.8587 181.842,53.3313C 182.302,53.8037 182.936,54.04 183.742,54.04C 184.649,54.04 185.481,53.7733 186.24,53.24L 186.24,54.4125C 185.54,54.9108 184.613,55.16 183.46,55.16C 182.333,55.16 181.448,54.7992 180.805,54.0775C 180.161,53.3558 179.84,52.34 179.84,51.03C 179.84,49.7933 180.188,48.7858 180.884,48.0075C 181.579,47.2292 182.444,46.84 183.477,46.84C 184.509,46.84 185.307,47.1762 185.872,47.8488C 186.437,48.5213 186.72,49.4558 186.72,50.6525L 186.72,51.32 Z M 185.44,50.2C 185.435,49.4933 185.257,48.9433 184.907,48.55C 184.557,48.1567 184.071,47.96 183.447,47.96C 182.846,47.96 182.335,48.1667 181.915,48.58C 181.495,48.9933 181.236,49.5333 181.137,50.2L 185.44,50.2 Z "/>
		<path fill="#FFFFFF" fill-opacity="1" stroke-linejoin="round" d="M 194.4,55L 193.12,55L 193.12,53.68L 193.087,53.68C 192.522,54.6667 191.689,55.16 190.587,55.16C 189.777,55.16 189.144,54.9483 188.686,54.525C 188.229,54.1017 188,53.5392 188,52.8375C 188,51.3358 188.894,50.4625 190.682,50.2175L 193.12,49.88C 193.12,48.6 192.562,47.96 191.447,47.96C 190.469,47.96 189.587,48.28 188.8,48.92L 188.8,47.5975C 189.595,47.0925 190.511,46.84 191.547,46.84C 193.449,46.84 194.4,47.8317 194.4,49.815L 194.4,55 Z M 193.12,50.84L 191.132,51.11C 190.521,51.1933 190.059,51.3421 189.747,51.5562C 189.436,51.7704 189.28,52.1492 189.28,52.6925C 189.28,53.0892 189.424,53.4129 189.711,53.6638C 189.999,53.9146 190.381,54.04 190.857,54.04C 191.512,54.04 192.053,53.8142 192.48,53.3625C 192.906,52.9108 193.12,52.3392 193.12,51.6475L 193.12,50.84 Z "/>
		<rect x="196.8" y="43.16" fill="#FFFFFF" fill-opacity="1" stroke-linejoin="round" width="1.28003" height="11.84"/>
		<path fill="#FFFFFF" fill-opacity="1" stroke-linejoin="round" d="M 206.272,53.7725L 206.24,53.7725L 206.24,55L 204.96,55L 204.96,43.16L 206.24,43.16L 206.24,48.475L 206.272,48.475C 206.902,47.385 207.824,46.84 209.037,46.84C 210.064,46.84 210.868,47.1958 211.449,47.9075C 212.029,48.6192 212.32,49.5725 212.32,50.7675C 212.32,52.0975 211.994,53.1621 211.344,53.9612C 210.693,54.7604 209.801,55.16 208.67,55.16C 207.613,55.16 206.814,54.6975 206.272,53.7725 Z M 206.24,50.625L 206.24,51.7175C 206.24,52.3642 206.456,52.9129 206.889,53.3637C 207.321,53.8146 207.871,54.04 208.537,54.04C 209.319,54.04 209.931,53.7496 210.375,53.1687C 210.818,52.5879 211.04,51.7809 211.04,50.7475C 211.04,49.8775 210.833,49.1954 210.419,48.7013C 210.004,48.2071 209.443,47.96 208.735,47.96C 207.985,47.96 207.381,48.2133 206.925,48.72C 206.468,49.2267 206.24,49.8617 206.24,50.625 Z "/>
		<path fill="#FFFFFF" fill-opacity="1" stroke-linejoin="round" d="M 220.96,55L 219.68,55L 219.68,53.665L 219.647,53.665C 219.109,54.6617 218.274,55.16 217.142,55.16C 215.207,55.16 214.24,54.0284 214.24,51.765L 214.24,47L 215.52,47L 215.52,51.5325C 215.52,53.2042 216.177,54.04 217.492,54.04C 218.129,54.04 218.653,53.8117 219.064,53.355C 219.474,52.8983 219.68,52.3017 219.68,51.565L 219.68,47L 220.96,47L 220.96,55 Z "/>
		<path fill="#FFFFFF" fill-opacity="1" stroke-linejoin="round" d="M 223.04,54.665L 223.04,53.24C 223.74,53.7733 224.51,54.04 225.35,54.04C 226.477,54.04 227.04,53.6842 227.04,52.9725C 227.04,52.7608 226.992,52.5813 226.895,52.4337C 226.798,52.2863 226.667,52.1554 226.502,52.0413C 226.337,51.9271 226.143,51.8246 225.92,51.7337C 225.697,51.6429 225.456,51.5483 225.2,51.45C 224.845,51.3117 224.532,51.1712 224.262,51.0287C 223.992,50.8863 223.767,50.7254 223.586,50.5462C 223.405,50.3671 223.269,50.1638 223.177,49.9362C 223.086,49.7087 223.04,49.4425 223.04,49.1375C 223.04,48.7642 223.127,48.4342 223.3,48.1475C 223.473,47.8608 223.704,47.6204 223.992,47.4262C 224.281,47.2321 224.61,47.0858 224.98,46.9875C 225.35,46.8892 225.732,46.84 226.125,46.84C 226.823,46.84 227.448,46.9675 228,47.2225L 228,48.6C 227.4,48.1733 226.71,47.96 225.93,47.96C 225.685,47.96 225.464,47.9858 225.267,48.0375C 225.071,48.0892 224.902,48.1621 224.761,48.2563C 224.62,48.3504 224.512,48.4629 224.435,48.5938C 224.358,48.7246 224.32,48.8692 224.32,49.0275C 224.32,49.2342 224.358,49.4075 224.434,49.5475C 224.509,49.6875 224.621,49.8117 224.767,49.92C 224.914,50.0284 225.092,50.1267 225.302,50.215C 225.512,50.3033 225.751,50.3992 226.017,50.5025C 226.374,50.6375 226.694,50.7762 226.976,50.9187C 227.259,51.0612 227.499,51.2216 227.699,51.4C 227.898,51.5783 228.051,51.7838 228.159,52.0163C 228.266,52.2487 228.32,52.5258 228.32,52.8475C 228.32,53.2408 228.233,53.5825 228.06,53.8725C 227.887,54.1625 227.654,54.4029 227.364,54.5938C 227.073,54.7846 226.738,54.9267 226.36,55.02C 225.982,55.1133 225.585,55.16 225.17,55.16C 224.352,55.16 223.642,54.995 223.04,54.665 Z "/>
		<path fill="#FFFFFF" fill-opacity="1" stroke-linejoin="round" d="M 230.872,44.92C 230.652,44.92 230.465,44.845 230.311,44.695C 230.157,44.545 230.08,44.355 230.08,44.125C 230.08,43.8933 230.157,43.7013 230.311,43.5487C 230.465,43.3963 230.652,43.32 230.872,43.32C 231.097,43.32 231.288,43.3963 231.445,43.5487C 231.601,43.7013 231.68,43.8933 231.68,44.125C 231.68,44.345 231.601,44.5325 231.445,44.6875C 231.288,44.8425 231.097,44.92 230.872,44.92 Z M 231.52,55L 230.24,55L 230.24,47L 231.52,47L 231.52,55 Z "/>
		<path fill="#FFFFFF" fill-opacity="1" stroke-linejoin="round" d="M 240.8,55L 239.52,55L 239.52,50.4825C 239.52,48.8008 238.887,47.96 237.622,47.96C 236.969,47.96 236.429,48.1983 236.001,48.675C 235.574,49.1517 235.36,49.7542 235.36,50.4825L 235.36,55L 234.08,55L 234.08,47L 235.36,47L 235.36,48.3975L 235.392,48.3975C 236.006,47.3592 236.893,46.84 238.055,46.84C 238.943,46.84 239.623,47.1217 240.094,47.685C 240.564,48.2483 240.8,49.0617 240.8,50.125L 240.8,55 Z "/>
		<path fill="#FFFFFF" fill-opacity="1" stroke-linejoin="round" d="M 249.6,51.32L 244,51.32C 244.021,52.1883 244.262,52.8587 244.722,53.3313C 245.182,53.8037 245.816,54.04 246.622,54.04C 247.529,54.04 248.361,53.7733 249.12,53.24L 249.12,54.4125C 248.42,54.9108 247.493,55.16 246.34,55.16C 245.213,55.16 244.328,54.7992 243.685,54.0775C 243.041,53.3558 242.72,52.34 242.72,51.03C 242.72,49.7933 243.068,48.7858 243.764,48.0075C 244.459,47.2292 245.324,46.84 246.357,46.84C 247.389,46.84 248.187,47.1762 248.752,47.8488C 249.317,48.5213 249.6,49.4558 249.6,50.6525L 249.6,51.32 Z M 248.32,50.2C 248.315,49.4933 248.137,48.9433 247.787,48.55C 247.437,48.1567 246.951,47.96 246.327,47.96C 245.726,47.96 245.215,48.1667 244.795,48.58C 244.375,48.9933 244.116,49.5333 244.017,50.2L 248.32,50.2 Z "/>
		<path fill="#FFFFFF" fill-opacity="1" stroke-linejoin="round" d="M 251.04,54.665L 251.04,53.24C 251.74,53.7733 252.51,54.04 253.35,54.04C 254.477,54.04 255.04,53.6842 255.04,52.9725C 255.04,52.7608 254.992,52.5813 254.895,52.4337C 254.798,52.2863 254.667,52.1554 254.502,52.0413C 254.337,51.9271 254.143,51.8246 253.92,51.7337C 253.697,51.6429 253.456,51.5483 253.2,51.45C 252.845,51.3117 252.532,51.1712 252.262,51.0287C 251.992,50.8863 251.767,50.7254 251.586,50.5462C 251.405,50.3671 251.269,50.1638 251.177,49.9362C 251.086,49.7087 251.04,49.4425 251.04,49.1375C 251.04,48.7642 251.127,48.4342 251.3,48.1475C 251.473,47.8608 251.704,47.6204 251.992,47.4262C 252.281,47.2321 252.61,47.0858 252.98,46.9875C 253.35,46.8892 253.732,46.84 254.125,46.84C 254.823,46.84 255.448,46.9675 256,47.2225L 256,48.6C 255.4,48.1733 254.71,47.96 253.93,47.96C 253.685,47.96 253.464,47.9858 253.267,48.0375C 253.071,48.0892 252.902,48.1621 252.761,48.2563C 252.62,48.3504 252.512,48.4629 252.435,48.5938C 252.358,48.7246 252.32,48.8692 252.32,49.0275C 252.32,49.2342 252.358,49.4075 252.434,49.5475C 252.509,49.6875 252.621,49.8117 252.767,49.92C 252.914,50.0284 253.092,50.1267 253.302,50.215C 253.512,50.3033 253.751,50.3992 254.017,50.5025C 254.374,50.6375 254.694,50.7762 254.976,50.9187C 255.259,51.0612 255.499,51.2216 255.699,51.4C 255.898,51.5783 256.051,51.7838 256.159,52.0163C 256.266,52.2487 256.32,52.5258 256.32,52.8475C 256.32,53.2408 256.233,53.5825 256.06,53.8725C 255.887,54.1625 255.654,54.4029 255.364,54.5938C 255.073,54.7846 254.738,54.9267 254.36,55.02C 253.982,55.1133 253.585,55.16 253.17,55.16C 252.352,55.16 251.642,54.995 251.04,54.665 Z "/>
		<path fill="#FFFFFF" fill-opacity="1" stroke-linejoin="round" d="M 257.76,54.665L 257.76,53.24C 258.46,53.7733 259.23,54.04 260.07,54.04C 261.196,54.04 261.76,53.6842 261.76,52.9725C 261.76,52.7608 261.711,52.5813 261.615,52.4337C 261.518,52.2863 261.387,52.1554 261.222,52.0413C 261.057,51.9271 260.863,51.8246 260.64,51.7337C 260.417,51.6429 260.176,51.5483 259.92,51.45C 259.565,51.3117 259.252,51.1712 258.982,51.0287C 258.712,50.8863 258.487,50.7254 258.306,50.5462C 258.125,50.3671 257.989,50.1638 257.897,49.9362C 257.806,49.7087 257.76,49.4425 257.76,49.1375C 257.76,48.7642 257.846,48.4342 258.02,48.1475C 258.193,47.8608 258.424,47.6204 258.712,47.4262C 259.001,47.2321 259.33,47.0858 259.7,46.9875C 260.07,46.8892 260.451,46.84 260.845,46.84C 261.543,46.84 262.168,46.9675 262.72,47.2225L 262.72,48.6C 262.12,48.1733 261.43,47.96 260.65,47.96C 260.405,47.96 260.184,47.9858 259.987,48.0375C 259.791,48.0892 259.622,48.1621 259.481,48.2563C 259.34,48.3504 259.232,48.4629 259.155,48.5938C 259.078,48.7246 259.04,48.8692 259.04,49.0275C 259.04,49.2342 259.078,49.4075 259.154,49.5475C 259.229,49.6875 259.341,49.8117 259.487,49.92C 259.634,50.0284 259.812,50.1267 260.022,50.215C 260.232,50.3033 260.471,50.3992 260.737,50.5025C 261.094,50.6375 261.414,50.7762 261.696,50.9187C 261.979,51.0612 262.219,51.2216 262.419,51.4C 262.618,51.5783 262.771,51.7838 262.879,52.0163C 262.986,52.2487 263.04,52.5258 263.04,52.8475C 263.04,53.2408 262.953,53.5825 262.78,53.8725C 262.607,54.1625 262.374,54.4029 262.084,54.5938C 261.793,54.7846 261.458,54.9267 261.08,55.02C 260.701,55.1133 260.305,55.16 259.89,55.16C 259.071,55.16 258.362,54.995 257.76,54.665 Z "/>
		<path fill="#FFFFFF" fill-opacity="1" stroke-linejoin="round" d="M 271.36,51.32L 265.76,51.32C 265.781,52.1883 266.022,52.8587 266.482,53.3313C 266.942,53.8037 267.576,54.04 268.382,54.04C 269.289,54.04 270.122,53.7733 270.88,53.24L 270.88,54.4125C 270.18,54.9108 269.253,55.16 268.1,55.16C 266.973,55.16 266.088,54.7992 265.445,54.0775C 264.802,53.3558 264.48,52.34 264.48,51.03C 264.48,49.7933 264.828,48.7858 265.524,48.0075C 266.219,47.2292 267.084,46.84 268.117,46.84C 269.149,46.84 269.947,47.1762 270.512,47.8488C 271.077,48.5213 271.36,49.4558 271.36,50.6525L 271.36,51.32 Z M 270.08,50.2C 270.075,49.4933 269.897,48.9433 269.547,48.55C 269.197,48.1567 268.711,47.96 268.087,47.96C 267.486,47.96 266.975,48.1667 266.555,48.58C 266.135,48.9933 265.876,49.5333 265.777,50.2L 270.08,50.2 Z "/>
		<path fill="#FFFFFF" fill-opacity="1" stroke-linejoin="round" d="M 272.8,54.665L 272.8,53.24C 273.5,53.7733 274.27,54.04 275.11,54.04C 276.237,54.04 276.8,53.6842 276.8,52.9725C 276.8,52.7608 276.752,52.5813 276.655,52.4337C 276.558,52.2863 276.427,52.1554 276.262,52.0413C 276.097,51.9271 275.903,51.8246 275.68,51.7337C 275.456,51.6429 275.216,51.5483 274.96,51.45C 274.605,51.3117 274.292,51.1712 274.022,51.0287C 273.752,50.8863 273.527,50.7254 273.346,50.5462C 273.165,50.3671 273.029,50.1638 272.937,49.9362C 272.846,49.7087 272.8,49.4425 272.8,49.1375C 272.8,48.7642 272.886,48.4342 273.06,48.1475C 273.233,47.8608 273.464,47.6204 273.752,47.4262C 274.041,47.2321 274.37,47.0858 274.74,46.9875C 275.11,46.8892 275.492,46.84 275.885,46.84C 276.583,46.84 277.208,46.9675 277.76,47.2225L 277.76,48.6C 277.16,48.1733 276.47,47.96 275.69,47.96C 275.445,47.96 275.224,47.9858 275.027,48.0375C 274.831,48.0892 274.662,48.1621 274.521,48.2563C 274.38,48.3504 274.271,48.4629 274.195,48.5938C 274.118,48.7246 274.08,48.8692 274.08,49.0275C 274.08,49.2342 274.118,49.4075 274.194,49.5475C 274.269,49.6875 274.381,49.8117 274.527,49.92C 274.674,50.0284 274.852,50.1267 275.062,50.215C 275.272,50.3033 275.511,50.3992 275.777,50.5025C 276.134,50.6375 276.454,50.7762 276.736,50.9187C 277.019,51.0612 277.259,51.2216 277.459,51.4C 277.658,51.5783 277.811,51.7838 277.919,52.0163C 278.026,52.2487 278.08,52.5258 278.08,52.8475C 278.08,53.2408 277.993,53.5825 277.82,53.8725C 277.646,54.1625 277.414,54.4029 277.124,54.5938C 276.833,54.7846 276.498,54.9267 276.12,55.02C 275.742,55.1133 275.345,55.16 274.93,55.16C 274.112,55.16 273.401,54.995 272.8,54.665 Z "/>
		<path fill="#FFFFFF" fill-opacity="1" stroke-linejoin="round" d="M 288.32,44.28C 288.065,44.1733 287.775,44.12 287.45,44.12C 286.536,44.12 286.08,44.6758 286.08,45.7875L 286.08,47L 288,47L 288,48.12L 286.08,48.12L 286.08,55L 284.8,55L 284.8,48.12L 283.36,48.12L 283.36,47L 284.8,47L 284.8,45.7075C 284.8,44.8725 285.046,44.2125 285.537,43.7275C 286.029,43.2425 286.642,43 287.377,43C 287.772,43 288.086,43.0467 288.32,43.14L 288.32,44.28 Z "/>
		<path fill="#FFFFFF" fill-opacity="1" stroke-linejoin="round" d="M 292.672,55.16C 291.496,55.16 290.556,54.7888 289.854,54.0462C 289.151,53.3037 288.8,52.3192 288.8,51.0925C 288.8,49.7575 289.165,48.715 289.896,47.965C 290.627,47.215 291.615,46.84 292.86,46.84C 294.047,46.84 294.973,47.2046 295.64,47.9337C 296.307,48.6629 296.64,49.675 296.64,50.97C 296.64,52.2367 296.281,53.2517 295.562,54.015C 294.844,54.7784 293.881,55.16 292.672,55.16 Z M 292.767,47.96C 291.939,47.96 291.284,48.2337 290.802,48.7813C 290.321,49.3288 290.08,50.0833 290.08,51.045C 290.08,51.9716 290.324,52.7025 290.811,53.2375C 291.299,53.7725 291.951,54.04 292.767,54.04C 293.601,54.04 294.241,53.7779 294.689,53.2538C 295.136,52.7296 295.36,51.9833 295.36,51.015C 295.36,50.0367 295.136,49.2829 294.689,48.7538C 294.241,48.2246 293.601,47.96 292.767,47.96 Z "/>
		<path fill="#FFFFFF" fill-opacity="1" stroke-linejoin="round" d="M 304.16,54.61C 303.553,54.9767 302.834,55.16 302.002,55.16C 300.876,55.16 299.967,54.7913 299.276,54.0537C 298.585,53.3163 298.24,52.3608 298.24,51.1875C 298.24,49.8775 298.612,48.8254 299.355,48.0313C 300.098,47.2371 301.09,46.84 302.33,46.84C 303.021,46.84 303.632,46.9742 304.16,47.2425L 304.16,48.6C 303.575,48.1733 302.948,47.96 302.28,47.96C 301.473,47.96 300.811,48.2462 300.295,48.8188C 299.778,49.3913 299.52,50.1442 299.52,51.0775C 299.52,51.9942 299.764,52.7171 300.251,53.2462C 300.739,53.7754 301.391,54.04 302.21,54.04C 302.901,54.04 303.552,53.8267 304.16,53.4L 304.16,54.61 Z "/>
		<path fill="#FFFFFF" fill-opacity="1" stroke-linejoin="round" d="M 312.64,55L 311.36,55L 311.36,53.665L 311.327,53.665C 310.789,54.6617 309.954,55.16 308.822,55.16C 306.887,55.16 305.92,54.0284 305.92,51.765L 305.92,47L 307.2,47L 307.2,51.5325C 307.2,53.2042 307.857,54.04 309.172,54.04C 309.809,54.04 310.333,53.8117 310.744,53.355C 311.154,52.8983 311.36,52.3017 311.36,51.565L 311.36,47L 312.64,47L 312.64,55 Z "/>
		<path fill="#FFFFFF" fill-opacity="1" stroke-linejoin="round" d="M 314.72,54.665L 314.72,53.24C 315.42,53.7733 316.19,54.04 317.03,54.04C 318.157,54.04 318.72,53.6842 318.72,52.9725C 318.72,52.7608 318.672,52.5813 318.575,52.4337C 318.478,52.2863 318.347,52.1554 318.182,52.0413C 318.017,51.9271 317.823,51.8246 317.6,51.7337C 317.377,51.6429 317.137,51.5483 316.88,51.45C 316.525,51.3117 316.212,51.1712 315.942,51.0287C 315.672,50.8863 315.447,50.7254 315.266,50.5462C 315.085,50.3671 314.949,50.1638 314.857,49.9362C 314.766,49.7087 314.72,49.4425 314.72,49.1375C 314.72,48.7642 314.807,48.4342 314.98,48.1475C 315.153,47.8608 315.384,47.6204 315.672,47.4262C 315.961,47.2321 316.29,47.0858 316.66,46.9875C 317.03,46.8892 317.412,46.84 317.805,46.84C 318.503,46.84 319.128,46.9675 319.68,47.2225L 319.68,48.6C 319.08,48.1733 318.39,47.96 317.61,47.96C 317.365,47.96 317.144,47.9858 316.947,48.0375C 316.751,48.0892 316.582,48.1621 316.441,48.2563C 316.3,48.3504 316.192,48.4629 316.115,48.5938C 316.038,48.7246 316,48.8692 316,49.0275C 316,49.2342 316.038,49.4075 316.114,49.5475C 316.189,49.6875 316.301,49.8117 316.447,49.92C 316.594,50.0284 316.772,50.1267 316.982,50.215C 317.192,50.3033 317.431,50.3992 317.697,50.5025C 318.054,50.6375 318.374,50.7762 318.656,50.9187C 318.939,51.0612 319.179,51.2216 319.379,51.4C 319.578,51.5783 319.731,51.7838 319.839,52.0163C 319.946,52.2487 320,52.5258 320,52.8475C 320,53.2408 319.913,53.5825 319.74,53.8725C 319.567,54.1625 319.334,54.4029 319.044,54.5938C 318.753,54.7846 318.418,54.9267 318.04,55.02C 317.662,55.1133 317.265,55.16 316.85,55.16C 316.032,55.16 315.322,54.995 314.72,54.665 Z "/>
		<path fill="#FFFFFF" fill-opacity="1" stroke-linejoin="round" d="M 329.632,55.16C 328.456,55.16 327.516,54.7888 326.814,54.0462C 326.111,53.3037 325.76,52.3192 325.76,51.0925C 325.76,49.7575 326.125,48.715 326.856,47.965C 327.587,47.215 328.575,46.84 329.82,46.84C 331.007,46.84 331.933,47.2046 332.6,47.9337C 333.267,48.6629 333.6,49.675 333.6,50.97C 333.6,52.2367 333.241,53.2517 332.522,54.015C 331.804,54.7784 330.841,55.16 329.632,55.16 Z M 329.727,47.96C 328.899,47.96 328.244,48.2337 327.762,48.7813C 327.281,49.3288 327.04,50.0833 327.04,51.045C 327.04,51.9716 327.284,52.7025 327.771,53.2375C 328.259,53.7725 328.911,54.04 329.727,54.04C 330.561,54.04 331.201,53.7779 331.649,53.2538C 332.096,52.7296 332.32,51.9833 332.32,51.015C 332.32,50.0367 332.096,49.2829 331.649,48.7538C 331.201,48.2246 330.561,47.96 329.727,47.96 Z "/>
		<path fill="#FFFFFF" fill-opacity="1" stroke-linejoin="round" d="M 342.4,55L 341.12,55L 341.12,50.4825C 341.12,48.8008 340.487,47.96 339.222,47.96C 338.569,47.96 338.029,48.1983 337.601,48.675C 337.174,49.1517 336.96,49.7542 336.96,50.4825L 336.96,55L 335.68,55L 335.68,47L 336.96,47L 336.96,48.3975L 336.992,48.3975C 337.606,47.3592 338.493,46.84 339.655,46.84C 340.543,46.84 341.223,47.1217 341.694,47.685C 342.164,48.2483 342.4,49.0617 342.4,50.125L 342.4,55 Z "/>
		<path fill="#FFFFFF" fill-opacity="1" stroke-linejoin="round" d="M 350.432,53.7725L 350.4,53.7725L 350.4,58.68L 349.12,58.68L 349.12,47L 350.4,47L 350.4,48.475L 350.432,48.475C 351.062,47.385 351.984,46.84 353.197,46.84C 354.229,46.84 355.034,47.1958 355.612,47.9075C 356.191,48.6192 356.48,49.5725 356.48,50.7675C 356.48,52.0975 356.154,53.1621 355.504,53.9612C 354.853,54.7604 353.961,55.16 352.83,55.16C 351.793,55.16 350.994,54.6975 350.432,53.7725 Z M 350.4,50.625L 350.4,51.7175C 350.4,52.3642 350.616,52.9129 351.049,53.3637C 351.481,53.8146 352.031,54.04 352.697,54.04C 353.479,54.04 354.091,53.7496 354.535,53.1687C 354.978,52.5879 355.2,51.7809 355.2,50.7475C 355.2,49.8775 354.993,49.1954 354.579,48.7013C 354.164,48.2071 353.603,47.96 352.895,47.96C 352.145,47.96 351.542,48.2133 351.085,48.72C 350.628,49.2267 350.4,49.8617 350.4,50.625 Z "/>
		<path fill="#FFFFFF" fill-opacity="1" stroke-linejoin="round" d="M 362.72,48.28C 362.496,48.0667 362.175,47.96 361.755,47.96C 361.21,47.96 360.754,48.2208 360.389,48.7425C 360.023,49.2642 359.84,49.975 359.84,50.875L 359.84,55L 358.56,55L 358.56,47L 359.84,47L 359.84,48.5675L 359.87,48.5675C 360.052,48.0242 360.329,47.6004 360.704,47.2962C 361.078,46.9921 361.496,46.84 361.957,46.84C 362.289,46.84 362.543,46.8767 362.72,46.95L 362.72,48.28 Z "/>
		<path fill="#FFFFFF" fill-opacity="1" stroke-linejoin="round" d="M 367.152,55.16C 365.976,55.16 365.036,54.7888 364.334,54.0462C 363.631,53.3037 363.28,52.3192 363.28,51.0925C 363.28,49.7575 363.645,48.715 364.376,47.965C 365.107,47.215 366.095,46.84 367.34,46.84C 368.526,46.84 369.453,47.2046 370.12,47.9337C 370.786,48.6629 371.12,49.675 371.12,50.97C 371.12,52.2367 370.761,53.2517 370.042,54.015C 369.324,54.7784 368.361,55.16 367.152,55.16 Z M 367.247,47.96C 366.419,47.96 365.764,48.2337 365.282,48.7813C 364.801,49.3288 364.56,50.0833 364.56,51.045C 364.56,51.9716 364.804,52.7025 365.291,53.2375C 365.779,53.7725 366.431,54.04 367.247,54.04C 368.081,54.04 368.721,53.7779 369.169,53.2538C 369.616,52.7296 369.84,51.9833 369.84,51.015C 369.84,50.0367 369.616,49.2829 369.169,48.7538C 368.721,48.2246 368.081,47.96 367.247,47.96 Z "/>
		<path fill="#FFFFFF" fill-opacity="1" stroke-linejoin="round" d="M 376.8,44.28C 376.545,44.1733 376.255,44.12 375.93,44.12C 375.016,44.12 374.56,44.6758 374.56,45.7875L 374.56,47L 376.48,47L 376.48,48.12L 374.56,48.12L 374.56,55L 373.28,55L 373.28,48.12L 371.84,48.12L 371.84,47L 373.28,47L 373.28,45.7075C 373.28,44.8725 373.526,44.2125 374.017,43.7275C 374.509,43.2425 375.122,43 375.857,43C 376.252,43 376.566,43.0467 376.8,43.14L 376.8,44.28 Z "/>
		<path fill="#FFFFFF" fill-opacity="1" stroke-linejoin="round" d="M 378.392,44.92C 378.172,44.92 377.985,44.845 377.831,44.695C 377.677,44.545 377.6,44.355 377.6,44.125C 377.6,43.8933 377.677,43.7013 377.831,43.5487C 377.985,43.3963 378.172,43.32 378.392,43.32C 378.617,43.32 378.808,43.3963 378.965,43.5487C 379.121,43.7013 379.2,43.8933 379.2,44.125C 379.2,44.345 379.121,44.5325 378.965,44.6875C 378.808,44.8425 378.617,44.92 378.392,44.92 Z M 379.04,55L 377.76,55L 377.76,47L 379.04,47L 379.04,55 Z "/>
		<path fill="#FFFFFF" fill-opacity="1" stroke-linejoin="round" d="M 385.44,54.8925C 385.131,55.0708 384.726,55.16 384.222,55.16C 382.794,55.16 382.08,54.3833 382.08,52.83L 382.08,48.12L 380.64,48.12L 380.64,47L 382.08,47L 382.08,45.02L 383.36,44.6L 383.36,47L 385.44,47L 385.44,48.12L 383.36,48.12L 383.36,52.5675C 383.36,53.0975 383.454,53.4754 383.642,53.7013C 383.831,53.9271 384.142,54.04 384.577,54.04C 384.911,54.04 385.198,53.9333 385.44,53.72L 385.44,54.8925 Z "/>
		<path fill="#FFFFFF" fill-opacity="1" stroke-linejoin="round" d="M 392.8,55L 391.52,55L 391.52,53.68L 391.487,53.68C 390.922,54.6667 390.089,55.16 388.987,55.16C 388.177,55.16 387.544,54.9483 387.086,54.525C 386.629,54.1017 386.4,53.5392 386.4,52.8375C 386.4,51.3358 387.294,50.4625 389.082,50.2175L 391.52,49.88C 391.52,48.6 390.962,47.96 389.847,47.96C 388.869,47.96 387.987,48.28 387.2,48.92L 387.2,47.5975C 387.995,47.0925 388.911,46.84 389.947,46.84C 391.849,46.84 392.8,47.8317 392.8,49.815L 392.8,55 Z M 391.52,50.84L 389.532,51.11C 388.921,51.1933 388.459,51.3421 388.147,51.5562C 387.836,51.7704 387.68,52.1492 387.68,52.6925C 387.68,53.0892 387.824,53.4129 388.111,53.6638C 388.399,53.9146 388.781,54.04 389.257,54.04C 389.912,54.04 390.453,53.8142 390.88,53.3625C 391.307,52.9108 391.52,52.3392 391.52,51.6475L 391.52,50.84 Z "/>
		<path fill="#FFFFFF" fill-opacity="1" stroke-linejoin="round" d="M 396.512,53.7725L 396.48,53.7725L 396.48,55L 395.2,55L 395.2,43.16L 396.48,43.16L 396.48,48.475L 396.512,48.475C 397.142,47.385 398.064,46.84 399.277,46.84C 400.304,46.84 401.108,47.1958 401.689,47.9075C 402.269,48.6192 402.56,49.5725 402.56,50.7675C 402.56,52.0975 402.234,53.1621 401.584,53.9612C 400.933,54.7604 400.042,55.16 398.91,55.16C 397.853,55.16 397.054,54.6975 396.512,53.7725 Z M 396.48,50.625L 396.48,51.7175C 396.48,52.3642 396.696,52.9129 397.129,53.3637C 397.561,53.8146 398.111,54.04 398.777,54.04C 399.559,54.04 400.172,53.7496 400.615,53.1687C 401.058,52.5879 401.28,51.7809 401.28,50.7475C 401.28,49.8775 401.073,49.1954 400.659,48.7013C 400.244,48.2071 399.683,47.96 398.975,47.96C 398.225,47.96 397.621,48.2133 397.165,48.72C 396.708,49.2267 396.48,49.8617 396.48,50.625 Z "/>
		<path fill="#FFFFFF" fill-opacity="1" stroke-linejoin="round" d="M 405.272,44.92C 405.052,44.92 404.865,44.845 404.711,44.695C 404.557,44.545 404.48,44.355 404.48,44.125C 404.48,43.8933 404.557,43.7013 404.711,43.5487C 404.865,43.3963 405.052,43.32 405.272,43.32C 405.497,43.32 405.688,43.3963 405.845,43.5487C 406.001,43.7013 406.08,43.8933 406.08,44.125C 406.08,44.345 406.001,44.5325 405.845,44.6875C 405.688,44.8425 405.497,44.92 405.272,44.92 Z M 405.92,55L 404.64,55L 404.64,47L 405.92,47L 405.92,55 Z "/>
		<rect x="408.48" y="43.16" fill="#FFFFFF" fill-opacity="1" stroke-linejoin="round" width="1.28003" height="11.84"/>
		<path fill="#FFFFFF" fill-opacity="1" stroke-linejoin="round" d="M 412.952,44.92C 412.732,44.92 412.545,44.845 412.391,44.695C 412.237,44.545 412.16,44.355 412.16,44.125C 412.16,43.8933 412.237,43.7013 412.391,43.5487C 412.545,43.3963 412.732,43.32 412.952,43.32C 413.177,43.32 413.368,43.3963 413.525,43.5487C 413.682,43.7013 413.76,43.8933 413.76,44.125C 413.76,44.345 413.682,44.5325 413.525,44.6875C 413.368,44.8425 413.177,44.92 412.952,44.92 Z M 413.6,55L 412.32,55L 412.32,47L 413.6,47L 413.6,55 Z "/>
		<path fill="#FFFFFF" fill-opacity="1" stroke-linejoin="round" d="M 420,54.8925C 419.692,55.0708 419.286,55.16 418.782,55.16C 417.354,55.16 416.64,54.3833 416.64,52.83L 416.64,48.12L 415.2,48.12L 415.2,47L 416.64,47L 416.64,45.02L 417.92,44.6L 417.92,47L 420,47L 420,48.12L 417.92,48.12L 417.92,52.5675C 417.92,53.0975 418.014,53.4754 418.202,53.7013C 418.391,53.9271 418.702,54.04 419.137,54.04C 419.471,54.04 419.758,53.9333 420,53.72L 420,54.8925 Z "/>
		<path fill="#FFFFFF" fill-opacity="1" stroke-linejoin="round" d="M 428,47L 424.337,56.295C 423.692,57.9917 422.786,58.84 421.62,58.84C 421.293,58.84 421.02,58.805 420.8,58.735L 420.8,57.56C 421.07,57.6667 421.317,57.72 421.542,57.72C 422.174,57.72 422.647,57.3275 422.962,56.5425L 423.59,55L 420.48,47L 421.902,47L 424.05,53.17C 424.075,53.2483 424.129,53.4517 424.212,53.78L 424.26,53.78C 424.285,53.655 424.337,53.4567 424.415,53.185L 426.67,47L 428,47 Z "/>
		<path fill="#FFFFFF" fill-opacity="1" stroke-linejoin="round" d="M 232.48,65.88C 232.225,65.7733 231.935,65.72 231.61,65.72C 230.697,65.72 230.24,66.2758 230.24,67.3875L 230.24,68.6L 232.16,68.6L 232.16,69.72L 230.24,69.72L 230.24,76.6L 228.96,76.6L 228.96,69.72L 227.52,69.72L 227.52,68.6L 228.96,68.6L 228.96,67.3075C 228.96,66.4725 229.206,65.8125 229.697,65.3275C 230.189,64.8425 230.802,64.6 231.537,64.6C 231.932,64.6 232.247,64.6467 232.48,64.74L 232.48,65.88 Z "/>
		<path fill="#FFFFFF" fill-opacity="1" stroke-linejoin="round" d="M 234.072,66.52C 233.852,66.52 233.665,66.445 233.511,66.295C 233.357,66.145 233.28,65.955 233.28,65.725C 233.28,65.4933 233.357,65.3012 233.511,65.1487C 233.665,64.9962 233.852,64.92 234.072,64.92C 234.297,64.92 234.488,64.9962 234.645,65.1487C 234.802,65.3012 234.88,65.4933 234.88,65.725C 234.88,65.945 234.802,66.1325 234.645,66.2875C 234.488,66.4425 234.297,66.52 234.072,66.52 Z M 234.72,76.6L 233.44,76.6L 233.44,68.6L 234.72,68.6L 234.72,76.6 Z "/>
		<path fill="#FFFFFF" fill-opacity="1" stroke-linejoin="round" d="M 241.44,69.88C 241.217,69.6667 240.895,69.56 240.475,69.56C 239.93,69.56 239.474,69.8208 239.109,70.3425C 238.743,70.8642 238.56,71.575 238.56,72.475L 238.56,76.6L 237.28,76.6L 237.28,68.6L 238.56,68.6L 238.56,70.1675L 238.59,70.1675C 238.772,69.6242 239.049,69.2004 239.424,68.8962C 239.798,68.5921 240.216,68.44 240.677,68.44C 241.009,68.44 241.263,68.4767 241.44,68.55L 241.44,69.88 Z "/>
		<path fill="#FFFFFF" fill-opacity="1" stroke-linejoin="round" d="M 242.4,76.265L 242.4,74.84C 243.1,75.3733 243.87,75.64 244.71,75.64C 245.837,75.64 246.4,75.2841 246.4,74.5725C 246.4,74.3608 246.352,74.1812 246.255,74.0338C 246.158,73.8863 246.027,73.7554 245.862,73.6413C 245.697,73.5271 245.503,73.4246 245.28,73.3337C 245.057,73.2429 244.817,73.1483 244.56,73.05C 244.205,72.9117 243.892,72.7712 243.622,72.6288C 243.352,72.4862 243.127,72.3254 242.946,72.1462C 242.765,71.9671 242.629,71.7638 242.537,71.5363C 242.446,71.3087 242.4,71.0425 242.4,70.7375C 242.4,70.3642 242.487,70.0341 242.66,69.7475C 242.833,69.4608 243.064,69.2204 243.352,69.0262C 243.641,68.8321 243.97,68.6858 244.34,68.5875C 244.71,68.4892 245.092,68.44 245.485,68.44C 246.183,68.44 246.808,68.5675 247.36,68.8225L 247.36,70.2C 246.76,69.7733 246.07,69.56 245.29,69.56C 245.045,69.56 244.824,69.5858 244.627,69.6375C 244.431,69.6892 244.262,69.7621 244.121,69.8562C 243.98,69.9504 243.872,70.0629 243.795,70.1938C 243.718,70.3246 243.68,70.4691 243.68,70.6275C 243.68,70.8342 243.718,71.0075 243.794,71.1475C 243.869,71.2875 243.981,71.4117 244.127,71.52C 244.274,71.6283 244.452,71.7267 244.662,71.815C 244.872,71.9033 245.111,71.9992 245.377,72.1025C 245.734,72.2375 246.054,72.3763 246.336,72.5187C 246.619,72.6613 246.859,72.8217 247.059,73C 247.258,73.1783 247.411,73.3838 247.519,73.6162C 247.626,73.8488 247.68,74.1258 247.68,74.4475C 247.68,74.8408 247.593,75.1825 247.42,75.4725C 247.247,75.7625 247.014,76.0029 246.724,76.1938C 246.433,76.3846 246.098,76.5267 245.72,76.62C 245.342,76.7133 244.945,76.76 244.53,76.76C 243.712,76.76 243.002,76.595 242.4,76.265 Z "/>
		<path fill="#FFFFFF" fill-opacity="1" stroke-linejoin="round" d="M 253.44,76.4925C 253.132,76.6708 252.726,76.76 252.222,76.76C 250.794,76.76 250.08,75.9833 250.08,74.43L 250.08,69.72L 248.64,69.72L 248.64,68.6L 250.08,68.6L 250.08,66.62L 251.36,66.2L 251.36,68.6L 253.44,68.6L 253.44,69.72L 251.36,69.72L 251.36,74.1675C 251.36,74.6975 251.454,75.0754 251.642,75.3012C 251.831,75.5271 252.142,75.64 252.577,75.64C 252.911,75.64 253.198,75.5333 253.44,75.32L 253.44,76.4925 Z "/>
		<path fill="#FFFFFF" fill-opacity="1" stroke-linejoin="round" d="M 256.32,74.84L 255.025,78.68L 254.08,78.68L 255.025,74.84L 256.32,74.84 Z "/>
		<path fill="#FFFFFF" fill-opacity="1" stroke-linejoin="round" d="M 266.272,76.76C 265.096,76.76 264.156,76.3888 263.454,75.6462C 262.751,74.9037 262.4,73.9192 262.4,72.6925C 262.4,71.3575 262.765,70.315 263.496,69.565C 264.227,68.815 265.215,68.44 266.46,68.44C 267.647,68.44 268.573,68.8046 269.24,69.5338C 269.907,70.2629 270.24,71.275 270.24,72.57C 270.24,73.8367 269.881,74.8517 269.162,75.615C 268.444,76.3783 267.481,76.76 266.272,76.76 Z M 266.367,69.56C 265.539,69.56 264.884,69.8337 264.402,70.3813C 263.921,70.9287 263.68,71.6833 263.68,72.645C 263.68,73.5717 263.924,74.3025 264.411,74.8375C 264.899,75.3725 265.551,75.64 266.367,75.64C 267.201,75.64 267.841,75.3779 268.289,74.8537C 268.736,74.3296 268.96,73.5833 268.96,72.615C 268.96,71.6367 268.736,70.8829 268.289,70.3537C 267.841,69.8246 267.201,69.56 266.367,69.56 Z "/>
		<path fill="#FFFFFF" fill-opacity="1" stroke-linejoin="round" d="M 278.72,68.6L 275.515,76.6L 274.25,76.6L 271.2,68.6L 272.605,68.6L 274.655,74.4125C 274.808,74.8392 274.903,75.2117 274.94,75.53L 274.972,75.53C 275.024,75.1283 275.108,74.7667 275.225,74.445L 277.37,68.6L 278.72,68.6 Z "/>
		<path fill="#FFFFFF" fill-opacity="1" stroke-linejoin="round" d="M 286.4,72.92L 280.8,72.92C 280.822,73.7883 281.062,74.4587 281.522,74.9312C 281.982,75.4037 282.616,75.64 283.422,75.64C 284.329,75.64 285.162,75.3733 285.92,74.84L 285.92,76.0125C 285.22,76.5108 284.293,76.76 283.14,76.76C 282.013,76.76 281.128,76.3992 280.485,75.6775C 279.842,74.9558 279.52,73.94 279.52,72.63C 279.52,71.3933 279.868,70.3858 280.564,69.6075C 281.259,68.8292 282.124,68.44 283.157,68.44C 284.189,68.44 284.987,68.7762 285.552,69.4488C 286.117,70.1212 286.4,71.0558 286.4,72.2525L 286.4,72.92 Z M 285.12,71.8C 285.115,71.0933 284.937,70.5433 284.587,70.15C 284.237,69.7567 283.751,69.56 283.127,69.56C 282.526,69.56 282.015,69.7667 281.595,70.18C 281.175,70.5933 280.916,71.1333 280.817,71.8L 285.12,71.8 Z "/>
		<path fill="#FFFFFF" fill-opacity="1" stroke-linejoin="round" d="M 292.48,69.88C 292.257,69.6667 291.935,69.56 291.515,69.56C 290.97,69.56 290.514,69.8208 290.149,70.3425C 289.783,70.8642 289.6,71.575 289.6,72.475L 289.6,76.6L 288.32,76.6L 288.32,68.6L 289.6,68.6L 289.6,70.1675L 289.63,70.1675C 289.812,69.6242 290.089,69.2004 290.464,68.8962C 290.838,68.5921 291.256,68.44 291.717,68.44C 292.049,68.44 292.303,68.4767 292.48,68.55L 292.48,69.88 Z "/>
		<path fill="#FFFFFF" fill-opacity="1" stroke-linejoin="round" d="M 309.76,76.6L 308.48,76.6L 308.48,72.05C 308.48,71.1733 308.34,70.5392 308.061,70.1475C 307.782,69.7558 307.312,69.56 306.652,69.56C 306.092,69.56 305.617,69.8075 305.226,70.3025C 304.835,70.7975 304.64,71.3908 304.64,72.0825L 304.64,76.6L 303.36,76.6L 303.36,71.8975C 303.36,70.3392 302.74,69.56 301.5,69.56C 300.925,69.56 300.451,69.7933 300.079,70.26C 299.706,70.7267 299.52,71.3342 299.52,72.0825L 299.52,76.6L 298.24,76.6L 298.24,68.6L 299.52,68.6L 299.52,69.935L 299.552,69.935C 300.129,68.9383 300.971,68.44 302.077,68.44C 302.634,68.44 303.119,68.5963 303.532,68.9088C 303.946,69.2213 304.229,69.6308 304.382,70.1375C 304.986,69.0058 305.885,68.44 307.08,68.44C 308.867,68.44 309.76,69.5225 309.76,71.6875L 309.76,76.6 Z "/>
		<path fill="#FFFFFF" fill-opacity="1" stroke-linejoin="round" d="M 312.632,66.52C 312.412,66.52 312.225,66.445 312.071,66.295C 311.917,66.145 311.84,65.955 311.84,65.725C 311.84,65.4933 311.917,65.3012 312.071,65.1487C 312.225,64.9962 312.412,64.92 312.632,64.92C 312.857,64.92 313.048,64.9962 313.205,65.1487C 313.362,65.3012 313.44,65.4933 313.44,65.725C 313.44,65.945 313.362,66.1325 313.205,66.2875C 313.048,66.4425 312.857,66.52 312.632,66.52 Z M 313.28,76.6L 312,76.6L 312,68.6L 313.28,68.6L 313.28,76.6 Z "/>
		<path fill="#FFFFFF" fill-opacity="1" stroke-linejoin="round" d="M 322.56,76.6L 321.28,76.6L 321.28,72.0825C 321.28,70.4008 320.647,69.56 319.382,69.56C 318.729,69.56 318.189,69.7983 317.761,70.275C 317.334,70.7517 317.12,71.3542 317.12,72.0825L 317.12,76.6L 315.84,76.6L 315.84,68.6L 317.12,68.6L 317.12,69.9975L 317.152,69.9975C 317.766,68.9592 318.653,68.44 319.815,68.44C 320.703,68.44 321.383,68.7216 321.854,69.285C 322.325,69.8483 322.56,70.6617 322.56,71.725L 322.56,76.6 Z "/>
		<path fill="#FFFFFF" fill-opacity="1" stroke-linejoin="round" d="M 331.84,76.6L 330.56,76.6L 330.56,75.17L 330.53,75.17C 329.937,76.23 329.022,76.76 327.785,76.76C 326.782,76.76 325.98,76.4041 325.38,75.6925C 324.78,74.9808 324.48,74.0125 324.48,72.7875C 324.48,71.4725 324.812,70.4192 325.477,69.6275C 326.142,68.8358 327.028,68.44 328.135,68.44C 329.232,68.44 330.029,68.8867 330.527,69.78L 330.56,69.78L 330.56,64.76L 331.84,64.76L 331.84,76.6 Z M 330.56,72.975L 330.56,71.82C 330.56,71.19 330.345,70.6558 329.916,70.2175C 329.487,69.7791 328.943,69.56 328.285,69.56C 327.502,69.56 326.885,69.84 326.435,70.4C 325.985,70.96 325.76,71.7342 325.76,72.7225C 325.76,73.6242 325.976,74.3358 326.407,74.8575C 326.839,75.3792 327.418,75.64 328.145,75.64C 328.862,75.64 329.443,75.3879 329.89,74.8838C 330.337,74.3796 330.56,73.7433 330.56,72.975 Z "/>
		<rect x="334.4" y="64.76" fill="#FFFFFF" fill-opacity="1" stroke-linejoin="round" width="1.28003" height="11.84"/>
		<path fill="#FFFFFF" fill-opacity="1" stroke-linejoin="round" d="M 344.64,72.92L 339.04,72.92C 339.062,73.7883 339.302,74.4587 339.762,74.9312C 340.222,75.4037 340.856,75.64 341.662,75.64C 342.569,75.64 343.401,75.3733 344.16,74.84L 344.16,76.0125C 343.46,76.5108 342.533,76.76 341.38,76.76C 340.253,76.76 339.368,76.3992 338.725,75.6775C 338.082,74.9558 337.76,73.94 337.76,72.63C 337.76,71.3933 338.108,70.3858 338.804,69.6075C 339.499,68.8292 340.364,68.44 341.397,68.44C 342.429,68.44 343.227,68.7762 343.792,69.4488C 344.357,70.1212 344.64,71.0558 344.64,72.2525L 344.64,72.92 Z M 343.36,71.8C 343.355,71.0933 343.177,70.5433 342.827,70.15C 342.477,69.7567 341.991,69.56 341.367,69.56C 340.766,69.56 340.255,69.7667 339.835,70.18C 339.415,70.5933 339.156,71.1333 339.057,71.8L 343.36,71.8 Z "/>
		<path fill="#FFFFFF" fill-opacity="1" stroke-linejoin="round" d="M 346.08,76.265L 346.08,74.84C 346.78,75.3733 347.55,75.64 348.39,75.64C 349.516,75.64 350.08,75.2841 350.08,74.5725C 350.08,74.3608 350.031,74.1812 349.935,74.0338C 349.838,73.8863 349.707,73.7554 349.542,73.6413C 349.377,73.5271 349.183,73.4246 348.96,73.3337C 348.737,73.2429 348.496,73.1483 348.24,73.05C 347.885,72.9117 347.572,72.7712 347.302,72.6288C 347.032,72.4862 346.807,72.3254 346.626,72.1462C 346.445,71.9671 346.309,71.7638 346.217,71.5363C 346.126,71.3087 346.08,71.0425 346.08,70.7375C 346.08,70.3642 346.167,70.0341 346.34,69.7475C 346.513,69.4608 346.744,69.2204 347.032,69.0262C 347.321,68.8321 347.65,68.6858 348.02,68.5875C 348.39,68.4892 348.771,68.44 349.165,68.44C 349.863,68.44 350.488,68.5675 351.04,68.8225L 351.04,70.2C 350.44,69.7733 349.75,69.56 348.97,69.56C 348.725,69.56 348.504,69.5858 348.307,69.6375C 348.111,69.6892 347.942,69.7621 347.801,69.8562C 347.66,69.9504 347.552,70.0629 347.475,70.1938C 347.398,70.3246 347.36,70.4691 347.36,70.6275C 347.36,70.8342 347.398,71.0075 347.474,71.1475C 347.549,71.2875 347.661,71.4117 347.807,71.52C 347.954,71.6283 348.132,71.7267 348.342,71.815C 348.552,71.9033 348.791,71.9992 349.057,72.1025C 349.414,72.2375 349.734,72.3763 350.016,72.5187C 350.299,72.6613 350.539,72.8217 350.739,73C 350.938,73.1783 351.091,73.3838 351.199,73.6162C 351.306,73.8488 351.36,74.1258 351.36,74.4475C 351.36,74.8408 351.273,75.1825 351.1,75.4725C 350.927,75.7625 350.694,76.0029 350.404,76.1938C 350.113,76.3846 349.778,76.5267 349.4,76.62C 349.021,76.7133 348.625,76.76 348.21,76.76C 347.391,76.76 346.682,76.595 346.08,76.265 Z "/>
		<path fill="#FFFFFF" fill-opacity="1" stroke-linejoin="round" d="M 352.8,76.265L 352.8,74.84C 353.5,75.3733 354.27,75.64 355.11,75.64C 356.237,75.64 356.8,75.2841 356.8,74.5725C 356.8,74.3608 356.752,74.1812 356.655,74.0338C 356.558,73.8863 356.427,73.7554 356.262,73.6413C 356.097,73.5271 355.903,73.4246 355.68,73.3337C 355.457,73.2429 355.216,73.1483 354.96,73.05C 354.605,72.9117 354.292,72.7712 354.022,72.6288C 353.752,72.4862 353.527,72.3254 353.346,72.1462C 353.165,71.9671 353.029,71.7638 352.937,71.5363C 352.846,71.3087 352.8,71.0425 352.8,70.7375C 352.8,70.3642 352.886,70.0341 353.06,69.7475C 353.233,69.4608 353.464,69.2204 353.752,69.0262C 354.041,68.8321 354.37,68.6858 354.74,68.5875C 355.11,68.4892 355.492,68.44 355.885,68.44C 356.583,68.44 357.208,68.5675 357.76,68.8225L 357.76,70.2C 357.16,69.7733 356.47,69.56 355.69,69.56C 355.445,69.56 355.224,69.5858 355.027,69.6375C 354.831,69.6892 354.662,69.7621 354.521,69.8562C 354.38,69.9504 354.271,70.0629 354.195,70.1938C 354.118,70.3246 354.08,70.4691 354.08,70.6275C 354.08,70.8342 354.118,71.0075 354.194,71.1475C 354.269,71.2875 354.381,71.4117 354.527,71.52C 354.674,71.6283 354.852,71.7267 355.062,71.815C 355.272,71.9033 355.511,71.9992 355.777,72.1025C 356.134,72.2375 356.454,72.3763 356.736,72.5187C 357.019,72.6613 357.259,72.8217 357.459,73C 357.658,73.1783 357.811,73.3838 357.919,73.6162C 358.026,73.8488 358.08,74.1258 358.08,74.4475C 358.08,74.8408 357.993,75.1825 357.82,75.4725C 357.646,75.7625 357.414,76.0029 357.124,76.1938C 356.833,76.3846 356.498,76.5267 356.12,76.62C 355.742,76.7133 355.345,76.76 354.93,76.76C 354.112,76.76 353.401,76.595 352.8,76.265 Z "/>
		<path fill="#FFFFFF" fill-opacity="1" stroke-linejoin="round" d="M 371.2,76.005C 371.2,78.9617 369.812,80.44 367.037,80.44C 366.062,80.44 365.21,80.245 364.48,79.855L 364.48,78.52C 365.367,79.0533 366.211,79.32 367.015,79.32C 368.952,79.32 369.92,78.2417 369.92,76.085L 369.92,75.185L 369.89,75.185C 369.281,76.235 368.367,76.76 367.145,76.76C 366.151,76.76 365.352,76.4066 364.747,75.7C 364.142,74.9933 363.84,74.045 363.84,72.855C 363.84,71.505 364.166,70.4317 364.817,69.635C 365.469,68.8383 366.362,68.44 367.495,68.44C 368.57,68.44 369.367,68.8867 369.887,69.78L 369.92,69.78L 369.92,68.6L 371.2,68.6L 371.2,76.005 Z M 369.92,72.975L 369.92,71.82C 369.92,71.2 369.704,70.6683 369.272,70.225C 368.841,69.7816 368.303,69.56 367.66,69.56C 366.867,69.56 366.245,69.8412 365.795,70.4037C 365.345,70.9662 365.12,71.7542 365.12,72.7675C 365.12,73.6392 365.336,74.3358 365.767,74.8575C 366.199,75.3792 366.77,75.64 367.48,75.64C 368.202,75.64 368.789,75.3904 369.241,74.8913C 369.694,74.3921 369.92,73.7533 369.92,72.975 Z "/>
		<path fill="#FFFFFF" fill-opacity="1" stroke-linejoin="round" d="M 377.92,69.88C 377.696,69.6667 377.375,69.56 376.955,69.56C 376.41,69.56 375.954,69.8208 375.589,70.3425C 375.223,70.8642 375.04,71.575 375.04,72.475L 375.04,76.6L 373.76,76.6L 373.76,68.6L 375.04,68.6L 375.04,70.1675L 375.07,70.1675C 375.251,69.6242 375.529,69.2004 375.904,68.8962C 376.278,68.5921 376.696,68.44 377.157,68.44C 377.489,68.44 377.743,68.4767 377.92,68.55L 377.92,69.88 Z "/>
		<path fill="#FFFFFF" fill-opacity="1" stroke-linejoin="round" d="M 382.352,76.76C 381.176,76.76 380.236,76.3888 379.534,75.6462C 378.831,74.9037 378.48,73.9192 378.48,72.6925C 378.48,71.3575 378.845,70.315 379.576,69.565C 380.307,68.815 381.295,68.44 382.54,68.44C 383.727,68.44 384.653,68.8046 385.32,69.5338C 385.987,70.2629 386.32,71.275 386.32,72.57C 386.32,73.8367 385.961,74.8517 385.242,75.615C 384.524,76.3783 383.561,76.76 382.352,76.76 Z M 382.447,69.56C 381.619,69.56 380.964,69.8337 380.482,70.3813C 380.001,70.9287 379.76,71.6833 379.76,72.645C 379.76,73.5717 380.004,74.3025 380.491,74.8375C 380.979,75.3725 381.631,75.64 382.447,75.64C 383.281,75.64 383.921,75.3779 384.369,74.8537C 384.816,74.3296 385.04,73.5833 385.04,72.615C 385.04,71.6367 384.816,70.8829 384.369,70.3537C 383.921,69.8246 383.281,69.56 382.447,69.56 Z "/>
		<path fill="#FFFFFF" fill-opacity="1" stroke-linejoin="round" d="M 398.48,68.6L 396.08,76.6L 394.75,76.6L 393.1,70.875C 393.036,70.6566 392.995,70.4091 392.975,70.1325L 392.942,70.1325C 392.927,70.3192 392.872,70.5617 392.777,70.86L 390.987,76.6L 389.705,76.6L 387.28,68.6L 388.625,68.6L 390.282,74.615C 390.336,74.7983 390.372,75.0383 390.392,75.335L 390.455,75.335C 390.472,75.105 390.518,74.86 390.595,74.6L 392.442,68.6L 393.615,68.6L 395.272,74.63C 395.326,74.8233 395.365,75.0633 395.39,75.35L 395.452,75.35C 395.464,75.1467 395.508,74.9066 395.585,74.63L 397.212,68.6L 398.48,68.6 Z "/>
		<path fill="#FFFFFF" fill-opacity="1" stroke-linejoin="round" d="M 403.76,76.4925C 403.452,76.6708 403.046,76.76 402.542,76.76C 401.114,76.76 400.4,75.9833 400.4,74.43L 400.4,69.72L 398.96,69.72L 398.96,68.6L 400.4,68.6L 400.4,66.62L 401.68,66.2L 401.68,68.6L 403.76,68.6L 403.76,69.72L 401.68,69.72L 401.68,74.1675C 401.68,74.6975 401.774,75.0754 401.962,75.3012C 402.151,75.5271 402.462,75.64 402.897,75.64C 403.231,75.64 403.518,75.5333 403.76,75.32L 403.76,76.4925 Z "/>
		<path fill="#FFFFFF" fill-opacity="1" stroke-linejoin="round" d="M 412.08,76.6L 410.8,76.6L 410.8,72.035C 410.8,70.385 410.167,69.56 408.902,69.56C 408.266,69.56 407.729,69.7983 407.294,70.275C 406.858,70.7517 406.64,71.3642 406.64,72.1125L 406.64,76.6L 405.36,76.6L 405.36,64.76L 406.64,64.76L 406.64,69.9975L 406.672,69.9975C 407.296,68.9592 408.183,68.44 409.335,68.44C 411.165,68.44 412.08,69.5225 412.08,71.6875L 412.08,76.6 Z "/>
		<rect x="419.386" y="62.4133" fill="#FFFFFF" fill-opacity="1" stroke-linejoin="round" width="2.23999" height="18.6667"/>
	</g>
</svg>
