<?xml version="1.0" encoding="utf-8"?>
<!DOCTYPE svg PUBLIC "-//W3C//DTD SVG 1.1//EN" "http://www.w3.org/Graphics/SVG/1.1/DTD/svg11.dtd">
<svg xmlns="http://www.w3.org/2000/svg" xmlns:xlink="http://www.w3.org/1999/xlink" version="1.1" baseProfile="full" width="50" height="50" viewBox="0 0 50.00 50.00" enable-background="new 0 0 50.00 50.00" xml:space="preserve">
	<rect x="-1.52588e-005" y="0" fill="#000000" fill-opacity="1" stroke-width="0.2" stroke-linejoin="round" width="50" height="50"/>
	<g>
		<path fill="#FFFFFF" fill-opacity="1" stroke-width="0.2" stroke-linejoin="round" d="M 22.3038,35.3284L 18.3743,35.3284L 18.3743,28.4517L 11.252,28.4517L 11.252,35.3284L 7.32245,35.3284L 7.32245,18.1366L 11.252,18.1366L 11.252,25.0133L 18.3743,25.0133L 18.3743,18.1366L 22.3038,18.1366L 22.3038,35.3284 Z "/>
		<path fill="#FFFFFF" fill-opacity="1" stroke-width="0.2" stroke-linejoin="round" d="M 26.2334,35.3284L 26.2334,18.1366L 32.5191,18.1366C 34.4455,18.1366 35.9261,18.4871 36.9609,19.1881C 37.9958,19.8891 38.5132,20.8766 38.5132,22.1506C 38.5132,23.0741 38.1985,23.8819 37.5692,24.5739C 36.9398,25.266 36.1352,25.7476 35.1554,26.0188L 35.1554,26.0686C 36.3987,26.2196 37.392,26.6718 38.1352,27.4252C 38.8784,28.1786 39.25,29.0964 39.25,30.1785C 39.25,31.7596 38.682,33.0131 37.5461,33.9392C 36.4103,34.8653 34.8587,35.3284 32.8913,35.3284L 26.2334,35.3284 Z M 30.1629,21.0838L 30.1629,25.0133L 31.8245,25.0133C 32.6048,25.0133 33.2188,24.8266 33.6665,24.4531C 34.1142,24.0796 34.338,23.5653 34.338,22.9104C 34.338,21.6927 33.4183,21.0838 31.5789,21.0838L 30.1629,21.0838 Z M 30.1629,27.9605L 30.1629,32.3812L 32.239,32.3812C 33.1241,32.3812 33.8181,32.1785 34.3208,31.773C 34.8235,31.3675 35.0748,30.8143 35.0748,30.1133C 35.0748,29.443 34.828,28.9167 34.3342,28.5342C 33.8404,28.1517 33.1497,27.9605 32.262,27.9605L 30.1629,27.9605 Z "/>
	</g>
	<g>
		<path fill="#FFFFFF" fill-opacity="1" stroke-linejoin="round" d="M 11.6333,39.4167L 9.99687,44.0833L 8.78333,44.0833L 7.16664,39.4167L 8.31978,39.4167L 9.31041,42.6646C 9.36317,42.8403 9.39513,42.9955 9.40623,43.1302L 9.42603,43.1302C 9.442,42.9851 9.47638,42.8257 9.52916,42.6521L 10.5135,39.4167L 11.6333,39.4167 Z "/>
		<path fill="#FFFFFF" fill-opacity="1" stroke-linejoin="round" d="M 14.9667,44.0833L 12.1666,44.0833L 12.1666,39.4167L 14.8333,39.4167L 14.8333,40.2833L 13.2333,40.2833L 13.2333,41.2833L 14.7666,41.2833L 14.7666,42.15L 13.2333,42.15L 13.2333,43.2167L 14.9667,43.2167L 14.9667,44.0833 Z "/>
		<path fill="#FFFFFF" fill-opacity="1" stroke-linejoin="round" d="M 19.9,44.0833L 18.8312,44.0833L 16.9198,41.151C 16.808,40.9795 16.7302,40.8504 16.6864,40.7635L 16.674,40.7635C 16.6913,40.9281 16.7,41.1799 16.7,41.5188L 16.7,44.0833L 15.7,44.0833L 15.7,39.4167L 16.8396,39.4167L 18.6802,42.2573C 18.7642,42.3858 18.842,42.5128 18.9135,42.6385L 18.926,42.6385C 18.9087,42.5302 18.9,42.3167 18.9,41.9979L 18.9,39.4167L 19.9,39.4167L 19.9,44.0833 Z "/>
		<path fill="#FFFFFF" fill-opacity="1" stroke-linejoin="round" d="M 24.3,40.2833L 22.9666,40.2833L 22.9666,44.0833L 21.9,44.0833L 21.9,40.2833L 20.5667,40.2833L 20.5667,39.4167L 24.3,39.4167L 24.3,40.2833 Z "/>
		<path fill="#FFFFFF" fill-opacity="1" stroke-linejoin="round" d="M 28.7,42.0542C 28.7,43.4514 28.0458,44.15 26.7375,44.15C 25.468,44.15 24.8333,43.4677 24.8333,42.1031L 24.8333,39.4167L 25.9,39.4167L 25.9,42.0958C 25.9,42.8431 26.1917,43.2167 26.775,43.2167C 27.3472,43.2167 27.6333,42.8559 27.6333,42.1344L 27.6333,39.4167L 28.7,39.4167L 28.7,42.0542 Z "/>
		<path fill="#FFFFFF" fill-opacity="1" stroke-linejoin="round" d="M 33.574,44.0833L 32.3667,44.0833L 31.6656,42.874C 31.6135,42.7816 31.5634,42.6995 31.5151,42.6276C 31.4668,42.5557 31.418,42.4941 31.3687,42.4427C 31.3194,42.3913 31.2681,42.3519 31.2146,42.3245C 31.1611,42.2971 31.1031,42.2833 31.0406,42.2833L 30.7667,42.2833L 30.7667,44.0833L 29.7,44.0833L 29.7,39.4167L 31.351,39.4167C 32.4725,39.4167 33.0333,39.8378 33.0333,40.6802C 33.0333,40.842 33.0089,40.9915 32.9599,41.1286C 32.9109,41.2658 32.8418,41.3894 32.7526,41.4995C 32.6633,41.6096 32.5555,41.7045 32.4292,41.7844C 32.3028,41.8642 32.1622,41.9267 32.0073,41.9719L 32.0073,41.9854C 32.0753,42.0069 32.1413,42.0422 32.2052,42.0912C 32.2691,42.1401 32.3307,42.1974 32.3901,42.263C 32.4495,42.3286 32.5064,42.3991 32.5609,42.4745C 32.6154,42.5498 32.6649,42.6236 32.7094,42.6958L 33.574,44.0833 Z M 30.7667,40.2167L 30.7667,41.4833L 31.1948,41.4833C 31.4066,41.4833 31.5764,41.4198 31.7042,41.2927C 31.8347,41.1635 31.9,41.0038 31.9,40.8136C 31.9,40.4156 31.6708,40.2167 31.2125,40.2167L 30.7667,40.2167 Z "/>
		<path fill="#FFFFFF" fill-opacity="1" stroke-linejoin="round" d="M 36.8333,44.0833L 34.0333,44.0833L 34.0333,39.4167L 36.7,39.4167L 36.7,40.2833L 35.1,40.2833L 35.1,41.2833L 36.6333,41.2833L 36.6333,42.15L 35.1,42.15L 35.1,43.2167L 36.8333,43.2167L 36.8333,44.0833 Z "/>
		<path fill="#FFFFFF" fill-opacity="1" stroke-linejoin="round" d="M 37.3667,43.8969L 37.3667,42.8833C 37.5548,43.0389 37.759,43.1556 37.9791,43.2333C 38.1993,43.3111 38.4215,43.35 38.6458,43.35C 38.7778,43.35 38.8929,43.3375 38.9911,43.3125C 39.0894,43.2875 39.1715,43.253 39.2375,43.2089C 39.3035,43.1648 39.3526,43.1129 39.3849,43.0531C 39.4172,42.9934 39.4333,42.9285 39.4333,42.8583C 39.4333,42.7681 39.4076,42.6873 39.3562,42.6161C 39.3048,42.545 39.2347,42.4792 39.1458,42.4188C 39.0569,42.3583 38.9515,42.3 38.8297,42.2438C 38.7078,42.1875 38.5764,42.1302 38.4354,42.0719C 38.0757,41.9212 37.8076,41.7368 37.6312,41.5188C 37.4548,41.3007 37.3667,41.0375 37.3667,40.7292C 37.3667,40.4875 37.4154,40.2799 37.513,40.1063C 37.6106,39.9326 37.7435,39.7896 37.912,39.6771C 38.0804,39.5646 38.2753,39.4819 38.4969,39.4292C 38.7184,39.3764 38.9531,39.35 39.201,39.35C 39.4441,39.35 39.6595,39.3644 39.8474,39.3932C 40.0352,39.4221 40.2083,39.4663 40.3667,39.526L 40.3667,40.4833C 40.2896,40.4278 40.2055,40.3788 40.1146,40.3365C 40.0236,40.2941 39.9298,40.259 39.8333,40.2313C 39.7368,40.2035 39.6409,40.183 39.5458,40.1698C 39.4507,40.1566 39.36,40.15 39.2739,40.15C 39.1566,40.15 39.0496,40.1618 38.9531,40.1854C 38.8566,40.209 38.7751,40.2424 38.7088,40.2854C 38.6425,40.3285 38.5911,40.38 38.5547,40.4401C 38.5182,40.5002 38.5,40.5674 38.5,40.6417C 38.5,40.7195 38.5203,40.7891 38.5609,40.8505C 38.6015,40.912 38.6593,40.9701 38.7344,41.025C 38.8094,41.0799 38.9003,41.1339 39.0073,41.187C 39.1142,41.2401 39.235,41.2944 39.3698,41.35C 39.5538,41.4278 39.7191,41.5104 39.8656,41.5979C 40.0121,41.6854 40.1378,41.7842 40.2427,41.8943C 40.3475,42.0043 40.4277,42.13 40.4833,42.2714C 40.5389,42.4127 40.5666,42.5771 40.5666,42.7646C 40.5666,43.0236 40.517,43.241 40.4177,43.4167C 40.3184,43.5924 40.1837,43.7347 40.0135,43.8438C 39.8434,43.9528 39.6455,44.0311 39.4198,44.0786C 39.1941,44.1262 38.9559,44.15 38.7052,44.15C 38.4476,44.15 38.2026,44.1288 37.9703,44.0865C 37.738,44.0441 37.5368,43.9809 37.3667,43.8969 Z "/>
	</g>
</svg>
